<svg width="103" height="150" viewBox="0 0 103 150" fill="none" xmlns="http://www.w3.org/2000/svg">
<path d="M73.8046 1.20588L75.287 2.62772L75.6184 3.44255L75.08 6.51106L73.9868 8.648L73.2993 10.6603L73.3987 11.6581L74.0614 12.6643L76.3223 14.2359L77.4736 15.2588L78.8484 16.8052L80.4221 18.3187L83.1139 20.2894L84.2569 20.6469L84.199 21.1958L83.8262 21.9526L83.5778 29.2866L83.3708 31.1824L83.1802 32.1389L82.9234 34.8744L82.6418 35.2652L82.1365 35.232L81.6646 35.3401L81.5486 35.8806L81.7389 36.446L83.3624 36.8368L83.0063 37.2527L81.8054 37.6268L81.242 38.45L81.4905 39.3896L80.8196 40.1464L81.0102 40.6536L81.4409 41.0196L82.1284 40.8863L84.0249 39.6226L84.8201 39.4894L85.8058 39.7472L87.6196 41.6763L87.6942 42.616L86.9569 45.834L86.2363 48.3203L86.1038 51.6383L86.8659 53.4925L86.7582 54.5152L85.9299 55.3968L84.058 56.6773L84.199 57.5505L85.0521 59.1801L86.6339 60.993L89.7233 63.2381L91.3466 66.1566L91.388 67.3457L90.444 68.5349L89.3257 69.5659L88.9613 71.0545L89.4665 80.8333L87.0231 85.0742L86.9983 86.2882L87.2468 87.6851L87.8929 88.5416L89.1352 88.7743L90.154 89.5894L89.7979 92.5663L89.2595 95.5929L89.1683 97.0647L88.8703 97.7633L87.9012 98.3287L87.5534 99.2849L87.8019 100.466L87.6196 101.339L88.133 102.47L89.2512 103.875L91.0402 107.368L91.7194 107.642L92.0341 108.382L91.8354 109.089L92.531 110.635L94.5187 112.182L96.606 113.529L98.2957 113.72L98.6932 114.926L99.8029 116.464L100.606 117.138L101.89 117.579L102.942 117.811L103 119.109L101.095 119.99L99.8112 121.329L98.834 123.366L97.4757 125.611L92.8045 126.775L91.0154 126.784L81.4326 126.842L72.4627 131.249L67.2945 132.82L64.1141 135.298L59.8404 137.061L56.8586 139.207L50.6552 140.23L40.4927 143.589L37.3123 144.928L34.0987 147.264L28.8724 150L26.8101 149.967L22.7187 147.406L19.6376 146.125L12.1006 144.163L6.47695 143.398L3.76029 142.558L3.01491 142.417L3.65262 141.494L5.2263 141.435L6.8662 141.71L8.11685 141.011L9.94707 140.92L10.4276 140.18L10.5767 138.334L10.56 136.837L11.1977 136.172L11.3635 134.409L10.4607 130.509L9.82297 130.06L6.54317 129.511L6.29471 128.73L5.70654 127.914L5.07717 125.902L4.36489 122.909L3.21358 119.192L1.00219 113.072L0.455472 110.901L0.0829049 108.698L0 106.062L0.455472 105.081L0.389249 103.717L0.182239 102.353L1.73923 99.2352L4.78725 95.4099L5.42496 94.0297L5.99645 93.0733L6.07936 91.6931L6.61773 87.236L8.07539 81.8478L8.99468 79.8103L9.61596 78.7044L10.3613 76.9083L10.5517 76.0686L13.3596 73.9482L14.6517 73.3828L14.9416 72.5428L14.5025 71.6366L14.6929 71.0129L15.3639 70.7053L16.3992 70.4556L17.153 69.5827L15.9685 62.9221L15.0078 56.2781L14.9497 55.7127L14.3865 54.7979L13.8234 52.054L12.871 50.4408L11.5458 49.9751L11.5539 48.4617L12.8874 45.8923L13.2352 44.3956L12.5975 43.9465L12.5065 42.7741L12.962 40.8863L12.7383 39.7223L12.4898 38.4916L11.1067 35.573L10.767 33.5023L11.4796 32.2967L11.4545 29.6525L10.7091 25.5697L10.585 22.992L11.0984 21.9193L10.8499 20.888L9.8394 19.9153L9.76509 18.9757L10.6262 18.0527L10.5186 17.3376L9.45015 16.8136L8.49775 15.5496L7.64469 13.5624L7.81859 10.3609L9.41704 4.47359L9.61596 3.98307L11.4298 4.01631L11.4381 4.26576L17.0784 4.20765L23.522 4.14116L31.2165 4.0663L38.2151 3.99982L38.5215 3.73362L39.6811 3.40931L46.746 4.00794L51.1688 3.70875L53.0404 3.89983L54.4154 4.299L57.4632 4.05793L59.095 4.20765L60.3207 5.6711L60.8176 5.66273L61.5051 5.03923L62.7226 4.32413L63.9649 3.76686L64.8594 2.61097L65.3978 1.73802L66.2013 1.91261L67.3607 1.86262L68.1312 1.13102L68.4375 0L73.8046 1.20588Z" fill="#F0F2F5"/>
</svg>
